<svg xmlns="http://www.w3.org/2000/svg" width="42" height="41" viewBox="0 0 42 41">
    <path fill="#FFFEFE" fill-opacity=".9" fill-rule="evenodd" d="M21.174 0c-5.5 0-6.19.023-8.351.122-2.156.098-3.628.44-4.917.941A9.929 9.929 0 0 0 4.318 3.4a9.929 9.929 0 0 0-2.336 3.587c-.5 1.289-.843 2.761-.941 4.917-.1 2.16-.122 2.85-.122 8.352 0 5.501.023 6.19.122 8.351.098 2.156.44 3.629.941 4.917a9.929 9.929 0 0 0 2.336 3.588 9.93 9.93 0 0 0 3.588 2.336c1.289.5 2.761.843 4.917.942 2.16.098 2.85.122 8.351.122 5.502 0 6.191-.024 8.352-.122 2.156-.099 3.628-.441 4.917-.942a9.93 9.93 0 0 0 3.588-2.336 9.93 9.93 0 0 0 2.336-3.588c.5-1.288.843-2.76.941-4.917.099-2.16.122-2.85.122-8.351 0-5.501-.023-6.191-.122-8.352-.098-2.156-.44-3.628-.941-4.917A9.93 9.93 0 0 0 38.03 3.4a9.929 9.929 0 0 0-3.588-2.337c-1.289-.5-2.761-.843-4.917-.941C27.366.023 26.676 0 21.174 0zm0 3.65c5.409 0 6.05.02 8.186.118 1.974.09 3.047.42 3.76.697.946.368 1.621.807 2.33 1.515.709.71 1.148 1.384 1.515 2.33.277.713.607 1.786.697 3.76.098 2.137.119 2.777.119 8.186 0 5.408-.021 6.049-.119 8.185-.09 1.975-.42 3.047-.697 3.761-.367.946-.806 1.62-1.515 2.33-.709.708-1.384 1.147-2.33 1.514-.713.278-1.786.608-3.76.698-2.136.097-2.777.118-8.186.118s-6.049-.02-8.185-.118c-1.975-.09-3.047-.42-3.76-.698-.946-.367-1.621-.806-2.33-1.515-.709-.709-1.148-1.383-1.515-2.329-.278-.714-.608-1.786-.698-3.761-.097-2.136-.118-2.777-.118-8.185 0-5.409.021-6.05.118-8.185.09-1.975.42-3.048.698-3.761.367-.946.806-1.62 1.515-2.33.709-.708 1.384-1.147 2.33-1.515.713-.277 1.785-.607 3.76-.697 2.136-.098 2.777-.118 8.185-.118zm0 6.204c-5.744 0-10.401 4.657-10.401 10.402 0 5.745 4.657 10.401 10.401 10.401 5.745 0 10.402-4.656 10.402-10.401S26.919 9.854 21.174 9.854zm0 17.154a6.752 6.752 0 1 1 0-13.504 6.752 6.752 0 0 1 0 13.504zM34.418 9.443a2.43 2.43 0 1 1-4.862 0 2.43 2.43 0 0 1 4.862 0z"/>
</svg>
