<svg xmlns="http://www.w3.org/2000/svg" width="41" height="41" viewBox="0 0 41 41">
    <path fill="#FFF" fill-opacity=".9" fill-rule="evenodd" d="M33.73 0H6.828C3.086 0 .023 3.062.023 6.805v26.902c0 3.743 3.063 6.805 6.805 6.805H33.73c3.743 0 6.805-3.062 6.805-6.805V6.805C40.535 3.062 37.473 0 33.73 0zM15.215 32.916h-5.064V15.192h5.064v17.724zM12.683 12.66a2.532 2.532 0 1 1 0-5.064 2.532 2.532 0 0 1 0 5.064zM32.94 32.916h-5.064V22.788a2.532 2.532 0 0 0-5.064 0v10.128h-5.064V15.192h5.064v3.144c1.044-1.435 2.64-3.144 4.431-3.144 3.147 0 5.697 2.834 5.697 6.33v11.394z"/>
</svg>
