<svg xmlns="http://www.w3.org/2000/svg" width="41" height="41" viewBox="0 0 41 41">
    <path fill="#FFF" fill-opacity=".9" fill-rule="evenodd" d="M20.616 0C9.429 0 .36 9.069.36 20.255c0 8.582 5.34 15.91 12.874 18.862-.177-1.603-.337-4.06.07-5.81.368-1.581 2.376-10.069 2.376-10.069s-.606-1.213-.606-3.007c0-2.816 1.633-4.918 3.665-4.918 1.728 0 2.563 1.297 2.563 2.853 0 1.738-1.106 4.336-1.677 6.744-.478 2.017 1.01 3.661 2.999 3.661 3.6 0 6.368-3.797 6.368-9.276 0-4.85-3.485-8.24-8.461-8.24-5.764 0-9.146 4.323-9.146 8.79 0 1.74.67 3.608 1.507 4.622.165.201.189.377.14.58-.154.64-.495 2.017-.563 2.299-.088.37-.293.449-.677.27-2.53-1.178-4.111-4.876-4.111-7.847 0-6.389 4.642-12.257 13.383-12.257 7.027 0 12.487 5.007 12.487 11.698 0 6.982-4.401 12.6-10.51 12.6-2.053 0-3.983-1.067-4.643-2.327 0 0-1.016 3.868-1.262 4.815-.457 1.76-1.692 3.965-2.518 5.31 1.896.587 3.91.904 5.998.904 11.187 0 20.255-9.07 20.255-20.256C40.871 9.07 31.803.001 20.616.001V0z"/>
</svg>
