<svg xmlns="http://www.w3.org/2000/svg" width="50" height="41" viewBox="0 0 50 41">
    <path fill="#FFFEFE" fill-opacity=".9" fill-rule="evenodd" d="M49.848 4.796a20.445 20.445 0 0 1-5.873 1.61A10.256 10.256 0 0 0 48.47.748a20.473 20.473 0 0 1-6.494 2.481A10.214 10.214 0 0 0 34.512 0c-5.648 0-10.227 4.58-10.227 10.227 0 .802.09 1.582.265 2.33-8.5-.426-16.037-4.498-21.08-10.685a10.181 10.181 0 0 0-1.386 5.141c0 3.549 1.806 6.68 4.55 8.513a10.188 10.188 0 0 1-4.632-1.279L2 14.375c0 4.956 3.525 9.089 8.204 10.029a10.245 10.245 0 0 1-4.618.175c1.302 4.063 5.079 7.02 9.554 7.102A20.519 20.519 0 0 1 2.44 36.06c-.826 0-1.64-.048-2.44-.143a28.946 28.946 0 0 0 15.678 4.596c18.811 0 29.098-15.585 29.098-29.1 0-.443-.01-.884-.03-1.323a20.77 20.77 0 0 0 5.104-5.294h-.002z"/>
</svg>
