<svg xmlns="http://www.w3.org/2000/svg" width="47" height="34" viewBox="0 0 47 34">
    <path fill="#FFFEFE" fill-opacity=".9" fill-rule="evenodd" d="M18.583 23.29l-.001-13.071 12.481 6.558-12.48 6.513zM45.988 7.954s-.452-3.206-1.836-4.618c-1.757-1.853-3.726-1.862-4.628-1.97-6.464-.47-16.161-.47-16.161-.47h-.02s-9.697 0-16.16.47c-.905.108-2.872.117-4.63 1.97C1.168 4.748.718 7.954.718 7.954s-.462 3.765-.462 7.529v3.53c0 3.765.462 7.529.462 7.529s.45 3.206 1.835 4.617c1.758 1.854 4.066 1.796 5.094 1.99 3.695.357 15.706.467 15.706.467s9.707-.014 16.17-.485c.903-.11 2.872-.118 4.629-1.972 1.384-1.411 1.836-4.617 1.836-4.617s.462-3.764.462-7.53v-3.53c0-3.763-.462-7.528-.462-7.528z"/>
</svg>
